<?xml version="1.0" standalone="no"?>
<!DOCTYPE svg PUBLIC "-//W3C//DTD SVG 20010904//EN"
 "http://www.w3.org/TR/2001/REC-SVG-20010904/DTD/svg10.dtd">
<svg version="1.0" xmlns="http://www.w3.org/2000/svg"
 width="980.000000pt" height="944.000000pt" viewBox="0 0 980.000000 944.000000"
 preserveAspectRatio="xMidYMid meet">

<g transform="translate(0.000000,944.000000) scale(0.100000,-0.100000)"
fill="#000000" stroke="none">
<path d="M2469 8398 c-1328 -572 -2417 -1043 -2421 -1047 -8 -7 4817 -2072
4841 -2071 13 0 4880 2058 4893 2069 5 5 -3358 1439 -4823 2057 l-76 32 -2414
-1040z"/>
<path d="M2 4626 l3 -2386 2355 -1115 c1295 -613 2358 -1115 2363 -1115 4 0 7
1126 7 2503 l0 2502 -2347 994 c-1292 547 -2356 996 -2366 999 -16 4 -17 -112
-15 -2382z"/>
<path d="M7430 6011 l-2345 -997 -3 -2502 c-1 -1675 1 -2502 8 -2502 6 0 1066
502 2358 1114 l2347 1115 3 2385 c2 1906 0 2386 -10 2385 -7 0 -1068 -449
-2358 -998z"/>
</g>
</svg>
